<svg width="316" height="54" viewBox="0 0 316 54" fill="none" xmlns="http://www.w3.org/2000/svg">
<path d="M0 0H24.0707C24.0707 0.924476 23.3213 1.67391 22.3968 1.67391H1.67391C0.749434 1.67391 0 0.924476 0 0Z" fill="white"/>
<path d="M0 0H24.0707C24.0707 0.924477 22.8733 1.67391 21.3962 1.67391H2.67453C1.19743 1.67391 0 0.924477 0 0Z" fill="white"/>
<path d="M0.445801 52.7283H24.5165C24.5165 51.8038 23.7671 51.0544 22.8426 51.0544H2.11971C1.19524 51.0544 0.445801 51.8038 0.445801 52.7283Z" fill="white"/>
<path d="M0.445801 52.7283H24.5165C24.5165 51.8038 23.3191 51.0544 21.842 51.0544H3.12033C1.64323 51.0544 0.445801 51.8038 0.445801 52.7283Z" fill="white"/>
<path d="M21.2052 2.51074C21.6596 2.51099 22.0274 2.87953 22.0275 3.33398V3.42188C22.0274 3.82799 21.6982 4.15723 21.2921 4.15723C20.1673 4.15729 19.7009 4.39599 18.7218 5.42578C17.7214 6.47794 16.9386 8.48029 16.9386 12.2812V40.3818C16.9386 44.1821 17.7178 46.2043 18.7218 47.2744C19.7043 48.3216 20.1758 48.5722 21.2921 48.5723C21.6981 48.5723 22.0273 48.9016 22.0275 49.3076V49.3955C22.0274 49.8499 21.6596 50.2187 21.2052 50.2188H3.94348C3.48906 50.2188 3.12027 49.8499 3.12024 49.3955V49.3076C3.12042 48.9017 3.44961 48.5723 3.85559 48.5723C4.93227 48.5722 5.26488 48.3219 6.24035 47.2744C7.23747 46.2036 8.02356 44.1817 8.02356 40.3818V12.2812C8.02354 8.48065 7.23391 6.47867 6.24035 5.42578C5.46299 4.60204 5.09796 4.28459 4.42785 4.19043C4.06407 4.13936 3.70839 4.30111 3.44543 4.55762L3.20422 4.79199C2.19623 5.77518 0.552407 4.72247 1.02356 3.39551C1.21194 2.86524 1.71373 2.51074 2.27649 2.51074H21.2052ZM6.26672 3.94531C8.07284 4.7754 9.71494 6.93953 9.71496 12.2812V40.3818C9.71496 47.9951 6.38035 49.2197 3.98742 49.2617C3.91427 49.263 3.85559 49.3223 3.85559 49.3955C3.85562 49.4686 3.91526 49.5283 3.9884 49.5283H21.1603L21.212 49.5176C21.1962 49.5242 21.1785 49.5273 21.1603 49.5273H3.9884C3.91557 49.5271 3.85678 49.4684 3.85656 49.3955C3.85676 49.3225 3.91544 49.2631 3.9884 49.2617C6.38129 49.2196 9.7159 47.9946 9.71594 40.3818V12.2812C9.71586 6.93887 8.07328 4.77514 6.26672 3.94531ZM18.0655 48.3164C18.2279 48.4347 18.3936 48.5389 18.5616 48.6309C18.3936 48.5389 18.2279 48.4347 18.0655 48.3164ZM12.4816 10.043C11.7435 10.0432 11.1451 10.6418 11.1447 11.3799V42.1846C11.1449 42.9228 11.7433 43.5213 12.4816 43.5215C13.22 43.5215 13.8182 42.9229 13.8185 42.1846V11.3799C13.818 10.6417 13.2198 10.043 12.4816 10.043ZM4.88879 3.54102C5.2507 3.59598 5.62062 3.6874 5.98742 3.82812C5.62059 3.68748 5.2507 3.59592 4.88879 3.54102ZM3.9884 3.20117C3.9151 3.20122 3.85561 3.26068 3.85559 3.33398C3.85559 3.40722 3.91424 3.46637 3.98742 3.46777C4.1373 3.47026 4.29118 3.47764 4.44738 3.49023C4.29148 3.47768 4.13799 3.47026 3.9884 3.46777C3.91537 3.46643 3.85664 3.40704 3.85656 3.33398C3.85676 3.26112 3.91556 3.20146 3.9884 3.20117Z" fill="white"/>
<path d="M29.9905 25.7L28.5685 25.916C28.3045 25.964 28.0945 26.06 27.9385 26.204C27.7945 26.336 27.7225 26.516 27.7225 26.744V47.84C27.7225 48.248 27.8545 48.548 28.1185 48.74C28.3945 48.92 28.8325 49.01 29.4325 49.01H34.1665C34.8745 49.01 35.4625 48.92 35.9305 48.74C36.4105 48.56 36.8245 48.248 37.1725 47.804C37.5205 47.348 37.8625 46.718 38.1985 45.914L39.1705 43.466C39.2545 43.298 39.3445 43.178 39.4405 43.106C39.5365 43.034 39.6625 43.01 39.8185 43.034C39.9865 43.058 40.1005 43.13 40.1605 43.25C40.2325 43.358 40.2385 43.514 40.1785 43.718L38.7205 50C38.6605 50.24 38.5765 50.414 38.4685 50.522C38.3605 50.63 38.2165 50.684 38.0365 50.684C37.8325 50.684 37.6465 50.624 37.4785 50.504C37.3105 50.396 37.1185 50.282 36.9025 50.162C36.6865 50.054 36.4045 50 36.0565 50H22.7545C22.5505 50 22.4005 49.964 22.3045 49.892C22.2085 49.808 22.1605 49.706 22.1605 49.586C22.1605 49.334 22.3405 49.172 22.7005 49.1L24.1225 48.884C24.3865 48.836 24.5905 48.746 24.7345 48.614C24.8905 48.47 24.9685 48.284 24.9685 48.056V26.744C24.9685 26.516 24.8905 26.336 24.7345 26.204C24.5905 26.06 24.3865 25.964 24.1225 25.916L22.7005 25.7C22.3405 25.628 22.1605 25.466 22.1605 25.214C22.1605 25.082 22.2085 24.98 22.3045 24.908C22.4005 24.836 22.5505 24.8 22.7545 24.8H29.9365C30.1525 24.8 30.3025 24.836 30.3865 24.908C30.4825 24.98 30.5305 25.082 30.5305 25.214C30.5305 25.466 30.3505 25.628 29.9905 25.7ZM46.6518 40.208H57.3258L57.4518 41.252H46.4538L46.6518 40.208ZM47.8038 49.586C47.8038 49.706 47.7558 49.808 47.6598 49.892C47.5638 49.964 47.4018 50 47.1738 50H41.7918C41.5758 50 41.4138 49.964 41.3058 49.892C41.1978 49.82 41.1438 49.718 41.1438 49.586C41.1438 49.49 41.1798 49.412 41.2518 49.352C41.3358 49.28 41.4858 49.208 41.7018 49.136L42.5298 48.902C42.8418 48.782 43.0818 48.614 43.2498 48.398C43.4178 48.17 43.6038 47.756 43.8078 47.156L50.6478 26.744C50.7678 26.408 50.7798 26.168 50.6838 26.024C50.5998 25.88 50.3478 25.772 49.9278 25.7C49.6278 25.64 49.4178 25.574 49.2978 25.502C49.1778 25.418 49.1178 25.316 49.1178 25.196C49.1178 25.064 49.1718 24.968 49.2798 24.908C49.3878 24.836 49.5498 24.8 49.7658 24.8H55.6158C55.8438 24.8 56.0058 24.836 56.1018 24.908C56.1978 24.968 56.2458 25.058 56.2458 25.178C56.2458 25.31 56.1918 25.418 56.0838 25.502C55.9758 25.574 55.7718 25.634 55.4718 25.682C55.1118 25.742 54.8958 25.826 54.8238 25.934C54.7638 26.042 54.7758 26.234 54.8598 26.51L62.1498 47.84C62.2698 48.224 62.4438 48.512 62.6718 48.704C62.8998 48.884 63.2418 49.01 63.6978 49.082C63.9618 49.142 64.1358 49.208 64.2198 49.28C64.3158 49.352 64.3638 49.454 64.3638 49.586C64.3638 49.706 64.3098 49.808 64.2018 49.892C64.0938 49.964 63.9318 50 63.7158 50H57.4698C57.2658 50 57.1098 49.964 57.0018 49.892C56.8938 49.808 56.8398 49.706 56.8398 49.586C56.8398 49.466 56.8818 49.37 56.9658 49.298C57.0618 49.226 57.2058 49.172 57.3978 49.136L58.8378 48.974C59.1378 48.926 59.3058 48.812 59.3418 48.632C59.3778 48.452 59.3298 48.17 59.1978 47.786L51.7818 25.934L52.2138 25.754L45.0858 47.066C44.9658 47.45 44.9058 47.768 44.9058 48.02C44.9178 48.26 45.0018 48.452 45.1578 48.596C45.3258 48.74 45.5718 48.854 45.8958 48.938L47.2458 49.136C47.4498 49.184 47.5938 49.244 47.6778 49.316C47.7618 49.376 47.8038 49.466 47.8038 49.586ZM86.3707 33.296C86.3707 34.496 86.1127 35.576 85.5967 36.536C85.0807 37.496 84.3547 38.288 83.4187 38.912C82.4827 39.536 81.3787 39.968 80.1067 40.208C79.7947 40.256 79.4887 40.304 79.1887 40.352C78.9007 40.4 78.6007 40.442 78.2887 40.478C77.9887 40.514 77.6707 40.532 77.3347 40.532C76.5787 40.532 75.8347 40.478 75.1027 40.37C74.3707 40.262 73.6927 40.106 73.0687 39.902C72.4447 39.698 71.9167 39.446 71.4847 39.146L71.6647 38.228C72.0367 38.492 72.5047 38.72 73.0687 38.912C73.6447 39.104 74.2687 39.248 74.9407 39.344C75.6127 39.44 76.2727 39.488 76.9207 39.488C78.9607 39.488 80.5567 38.948 81.7087 37.868C82.8727 36.776 83.4547 35.234 83.4547 33.242C83.4547 31.79 83.1127 30.506 82.4287 29.39C81.7567 28.262 80.7847 27.374 79.5127 26.726C78.2527 26.078 76.7467 25.754 74.9947 25.754H72.5467V48.038C72.5467 48.266 72.6127 48.458 72.7447 48.614C72.8887 48.758 73.0927 48.848 73.3567 48.884L75.3187 49.1C75.5107 49.136 75.6427 49.196 75.7147 49.28C75.7987 49.352 75.8407 49.454 75.8407 49.586C75.8407 49.862 75.6487 50 75.2647 50H67.5787C67.3747 50 67.2247 49.964 67.1287 49.892C67.0327 49.808 66.9847 49.706 66.9847 49.586C66.9847 49.334 67.1647 49.172 67.5247 49.1L68.9467 48.884C69.2227 48.836 69.4327 48.74 69.5767 48.596C69.7207 48.452 69.7927 48.266 69.7927 48.038V26.744C69.7927 26.516 69.7147 26.336 69.5587 26.204C69.4147 26.06 69.2107 25.964 68.9467 25.916L67.5247 25.7C67.1647 25.628 66.9847 25.466 66.9847 25.214C66.9847 25.082 67.0327 24.98 67.1287 24.908C67.2247 24.836 67.3747 24.8 67.5787 24.8H75.0487C77.4727 24.8 79.5247 25.166 81.2047 25.898C82.8847 26.63 84.1627 27.638 85.0387 28.922C85.9267 30.194 86.3707 31.652 86.3707 33.296ZM78.0547 40.064L80.8447 39.722L86.1547 47.804C86.3947 48.164 86.6647 48.44 86.9647 48.632C87.2767 48.824 87.6847 48.968 88.1887 49.064C88.5967 49.136 88.8607 49.208 88.9807 49.28C89.1007 49.352 89.1607 49.454 89.1607 49.586C89.1607 49.706 89.1067 49.808 88.9987 49.892C88.8907 49.964 88.7287 50 88.5127 50H82.1587C81.7387 50 81.5287 49.862 81.5287 49.586C81.5287 49.478 81.5707 49.394 81.6547 49.334C81.7387 49.262 81.8647 49.214 82.0327 49.19L82.8967 49.064C83.1847 49.004 83.3467 48.884 83.3827 48.704C83.4187 48.524 83.3407 48.284 83.1487 47.984L78.0547 40.064ZM96.5233 48.056C96.5233 48.284 96.5953 48.47 96.7393 48.614C96.8953 48.746 97.1053 48.836 97.3693 48.884L98.7913 49.1C99.1513 49.172 99.3313 49.334 99.3313 49.586C99.3313 49.706 99.2833 49.808 99.1873 49.892C99.1033 49.964 98.9533 50 98.7373 50H91.5553C91.3513 50 91.2013 49.964 91.1053 49.892C91.0093 49.808 90.9613 49.706 90.9613 49.586C90.9613 49.334 91.1413 49.172 91.5013 49.1L92.9233 48.884C93.1873 48.836 93.3913 48.746 93.5353 48.614C93.6913 48.47 93.7693 48.284 93.7693 48.056V26.744C93.7693 26.516 93.6913 26.336 93.5353 26.204C93.3913 26.06 93.1873 25.964 92.9233 25.916L91.5013 25.7C91.1413 25.628 90.9613 25.466 90.9613 25.214C90.9613 25.082 91.0093 24.98 91.1053 24.908C91.2013 24.836 91.3513 24.8 91.5553 24.8H98.7373C98.9533 24.8 99.1033 24.836 99.1873 24.908C99.2833 24.98 99.3313 25.082 99.3313 25.214C99.3313 25.466 99.1513 25.628 98.7913 25.7L97.3693 25.916C97.1053 25.964 96.8953 26.06 96.7393 26.204C96.5953 26.336 96.5233 26.516 96.5233 26.744V48.056ZM107.402 40.208H118.076L118.202 41.252H107.204L107.402 40.208ZM108.554 49.586C108.554 49.706 108.506 49.808 108.41 49.892C108.314 49.964 108.152 50 107.924 50H102.542C102.326 50 102.164 49.964 102.056 49.892C101.948 49.82 101.894 49.718 101.894 49.586C101.894 49.49 101.93 49.412 102.002 49.352C102.086 49.28 102.236 49.208 102.452 49.136L103.28 48.902C103.592 48.782 103.832 48.614 104 48.398C104.168 48.17 104.354 47.756 104.558 47.156L111.398 26.744C111.518 26.408 111.53 26.168 111.434 26.024C111.35 25.88 111.098 25.772 110.678 25.7C110.378 25.64 110.168 25.574 110.048 25.502C109.928 25.418 109.868 25.316 109.868 25.196C109.868 25.064 109.922 24.968 110.03 24.908C110.138 24.836 110.3 24.8 110.516 24.8H116.366C116.594 24.8 116.756 24.836 116.852 24.908C116.948 24.968 116.996 25.058 116.996 25.178C116.996 25.31 116.942 25.418 116.834 25.502C116.726 25.574 116.522 25.634 116.222 25.682C115.862 25.742 115.646 25.826 115.574 25.934C115.514 26.042 115.526 26.234 115.61 26.51L122.9 47.84C123.02 48.224 123.194 48.512 123.422 48.704C123.65 48.884 123.992 49.01 124.448 49.082C124.712 49.142 124.886 49.208 124.97 49.28C125.066 49.352 125.114 49.454 125.114 49.586C125.114 49.706 125.06 49.808 124.952 49.892C124.844 49.964 124.682 50 124.466 50H118.22C118.016 50 117.86 49.964 117.752 49.892C117.644 49.808 117.59 49.706 117.59 49.586C117.59 49.466 117.632 49.37 117.716 49.298C117.812 49.226 117.956 49.172 118.148 49.136L119.588 48.974C119.888 48.926 120.056 48.812 120.092 48.632C120.128 48.452 120.08 48.17 119.948 47.786L112.532 25.934L112.964 25.754L105.836 47.066C105.716 47.45 105.656 47.768 105.656 48.02C105.668 48.26 105.752 48.452 105.908 48.596C106.076 48.74 106.322 48.854 106.646 48.938L107.996 49.136C108.2 49.184 108.344 49.244 108.428 49.316C108.512 49.376 108.554 49.466 108.554 49.586Z" fill="white"/>
<path d="M219.121 40.208H229.795L229.921 41.252H218.923L219.121 40.208ZM220.273 49.586C220.273 49.706 220.225 49.808 220.129 49.892C220.033 49.964 219.871 50 219.643 50H214.261C214.045 50 213.883 49.964 213.775 49.892C213.667 49.82 213.613 49.718 213.613 49.586C213.613 49.49 213.649 49.412 213.721 49.352C213.805 49.28 213.955 49.208 214.171 49.136L214.999 48.902C215.311 48.782 215.551 48.614 215.719 48.398C215.887 48.17 216.073 47.756 216.277 47.156L223.117 26.744C223.237 26.408 223.249 26.168 223.153 26.024C223.069 25.88 222.817 25.772 222.397 25.7C222.097 25.64 221.887 25.574 221.767 25.502C221.647 25.418 221.587 25.316 221.587 25.196C221.587 25.064 221.641 24.968 221.749 24.908C221.857 24.836 222.019 24.8 222.235 24.8H228.085C228.313 24.8 228.475 24.836 228.571 24.908C228.667 24.968 228.715 25.058 228.715 25.178C228.715 25.31 228.661 25.418 228.553 25.502C228.445 25.574 228.241 25.634 227.941 25.682C227.581 25.742 227.365 25.826 227.293 25.934C227.233 26.042 227.245 26.234 227.329 26.51L234.619 47.84C234.739 48.224 234.913 48.512 235.141 48.704C235.369 48.884 235.711 49.01 236.167 49.082C236.431 49.142 236.605 49.208 236.689 49.28C236.785 49.352 236.833 49.454 236.833 49.586C236.833 49.706 236.779 49.808 236.671 49.892C236.563 49.964 236.401 50 236.185 50H229.939C229.735 50 229.579 49.964 229.471 49.892C229.363 49.808 229.309 49.706 229.309 49.586C229.309 49.466 229.351 49.37 229.435 49.298C229.531 49.226 229.675 49.172 229.867 49.136L231.307 48.974C231.607 48.926 231.775 48.812 231.811 48.632C231.847 48.452 231.799 48.17 231.667 47.786L224.251 25.934L224.683 25.754L217.555 47.066C217.435 47.45 217.375 47.768 217.375 48.02C217.387 48.26 217.471 48.452 217.627 48.596C217.795 48.74 218.041 48.854 218.365 48.938L219.715 49.136C219.919 49.184 220.063 49.244 220.147 49.316C220.231 49.376 220.273 49.466 220.273 49.586ZM246.887 49.586C246.887 49.706 246.833 49.808 246.725 49.892C246.617 49.964 246.455 50 246.239 50H239.849C239.633 50 239.471 49.964 239.363 49.892C239.255 49.808 239.201 49.706 239.201 49.586C239.201 49.382 239.375 49.226 239.723 49.118L241.073 48.776C241.589 48.632 241.931 48.476 242.099 48.308C242.279 48.128 242.369 47.828 242.369 47.408V29.372C242.369 29.072 242.321 28.808 242.225 28.58C242.141 28.352 241.913 28.028 241.541 27.608L239.903 25.628C239.795 25.484 239.717 25.376 239.669 25.304C239.633 25.232 239.615 25.16 239.615 25.088C239.615 24.992 239.651 24.92 239.723 24.872C239.807 24.824 239.915 24.8 240.047 24.8H242.225C242.441 24.8 242.627 24.848 242.783 24.944C242.951 25.028 243.125 25.19 243.305 25.43L259.487 46.202L258.893 47.156V27.392C258.893 26.984 258.809 26.69 258.641 26.51C258.473 26.318 258.125 26.156 257.597 26.024L256.085 25.682C255.737 25.574 255.563 25.418 255.563 25.214C255.563 25.082 255.617 24.98 255.725 24.908C255.833 24.836 255.995 24.8 256.211 24.8H262.619C262.823 24.8 262.979 24.836 263.087 24.908C263.195 24.98 263.249 25.082 263.249 25.214C263.249 25.418 263.075 25.574 262.727 25.682L261.377 26.024C260.861 26.156 260.513 26.312 260.333 26.492C260.165 26.672 260.081 26.972 260.081 27.392V46.364C260.081 46.652 260.111 46.88 260.171 47.048C260.231 47.216 260.327 47.39 260.459 47.57L261.575 48.992C261.707 49.16 261.791 49.292 261.827 49.388C261.875 49.484 261.899 49.574 261.899 49.658C261.899 49.754 261.857 49.838 261.773 49.91C261.701 49.97 261.569 50 261.377 50H258.875C258.527 50 258.353 49.862 258.353 49.586C258.353 49.418 258.323 49.274 258.263 49.154C258.215 49.022 258.053 48.788 257.777 48.452L242.711 28.994L243.557 28.292V47.408C243.557 47.816 243.641 48.11 243.809 48.29C243.977 48.47 244.325 48.632 244.853 48.776L246.365 49.118C246.713 49.226 246.887 49.382 246.887 49.586ZM276.341 50.558C275.201 50.558 274.223 50.408 273.407 50.108C272.603 49.808 271.961 49.514 271.481 49.226C271.001 48.926 270.677 48.776 270.509 48.776C270.341 48.776 270.215 48.866 270.131 49.046C270.059 49.214 269.993 49.418 269.933 49.658C269.873 49.886 269.795 50.09 269.699 50.27C269.615 50.45 269.483 50.54 269.303 50.54C269.183 50.54 269.081 50.492 268.997 50.396C268.913 50.312 268.847 50.18 268.799 50L267.359 44.348C267.323 44.18 267.335 44.036 267.395 43.916C267.455 43.796 267.557 43.712 267.701 43.664C267.857 43.616 267.995 43.628 268.115 43.7C268.235 43.76 268.337 43.874 268.421 44.042C269.021 45.338 269.735 46.394 270.563 47.21C271.403 48.014 272.309 48.602 273.281 48.974C274.253 49.346 275.243 49.532 276.251 49.532C277.703 49.532 278.837 49.124 279.653 48.308C280.469 47.492 280.883 46.43 280.895 45.122C280.907 44.33 280.733 43.586 280.373 42.89C280.013 42.194 279.353 41.522 278.393 40.874C277.445 40.214 276.071 39.566 274.271 38.93C272.495 38.282 271.073 37.574 270.005 36.806C268.937 36.038 268.163 35.18 267.683 34.232C267.203 33.284 266.963 32.222 266.963 31.046C266.963 29.678 267.275 28.496 267.899 27.5C268.535 26.492 269.405 25.712 270.509 25.16C271.625 24.608 272.903 24.332 274.343 24.332C275.519 24.332 276.473 24.476 277.205 24.764C277.937 25.04 278.513 25.322 278.933 25.61C279.353 25.886 279.677 26.024 279.905 26.024C280.133 26.024 280.277 25.886 280.337 25.61C280.397 25.334 280.457 25.058 280.517 24.782C280.589 24.494 280.751 24.35 281.003 24.35C281.135 24.35 281.243 24.392 281.327 24.476C281.411 24.56 281.483 24.71 281.543 24.926L283.343 30.884C283.391 31.052 283.385 31.208 283.325 31.352C283.277 31.496 283.175 31.592 283.019 31.64C282.875 31.688 282.737 31.682 282.605 31.622C282.485 31.562 282.383 31.448 282.299 31.28C281.603 29.816 280.841 28.652 280.013 27.788C279.197 26.924 278.321 26.3 277.385 25.916C276.461 25.532 275.483 25.34 274.451 25.34C272.939 25.34 271.715 25.784 270.779 26.672C269.855 27.548 269.393 28.718 269.393 30.182C269.393 31.022 269.579 31.808 269.951 32.54C270.323 33.272 270.977 33.974 271.913 34.646C272.849 35.306 274.163 35.96 275.855 36.608C277.727 37.316 279.203 38.054 280.283 38.822C281.363 39.578 282.131 40.406 282.587 41.306C283.043 42.194 283.271 43.19 283.271 44.294C283.259 45.434 282.983 46.478 282.443 47.426C281.915 48.374 281.141 49.136 280.121 49.712C279.101 50.276 277.841 50.558 276.341 50.558ZM292.969 48.056C292.969 48.284 293.041 48.47 293.185 48.614C293.341 48.746 293.551 48.836 293.815 48.884L295.237 49.1C295.597 49.172 295.777 49.334 295.777 49.586C295.777 49.706 295.729 49.808 295.633 49.892C295.549 49.964 295.399 50 295.183 50H288.001C287.797 50 287.647 49.964 287.551 49.892C287.455 49.808 287.407 49.706 287.407 49.586C287.407 49.334 287.587 49.172 287.947 49.1L289.369 48.884C289.633 48.836 289.837 48.746 289.981 48.614C290.137 48.47 290.215 48.284 290.215 48.056V26.744C290.215 26.516 290.137 26.336 289.981 26.204C289.837 26.06 289.633 25.964 289.369 25.916L287.947 25.7C287.587 25.628 287.407 25.466 287.407 25.214C287.407 25.082 287.455 24.98 287.551 24.908C287.647 24.836 287.797 24.8 288.001 24.8H295.183C295.399 24.8 295.549 24.836 295.633 24.908C295.729 24.98 295.777 25.082 295.777 25.214C295.777 25.466 295.597 25.628 295.237 25.7L293.815 25.916C293.551 25.964 293.341 26.06 293.185 26.204C293.041 26.336 292.969 26.516 292.969 26.744V48.056Z" fill="white"/>
<path d="M162.692 3C164.703 3.00003 166.518 4.20862 167.294 6.06445L174.188 22.5498C177.27 29.9199 187.712 29.9205 190.794 22.5508L196.826 8.12695C198.125 5.02179 201.162 3.00001 204.527 3H212.008C212.486 3 212.875 3.38864 212.875 3.86719V3.89453C212.875 4.35766 212.499 4.7334 212.036 4.7334C210.763 4.73341 209.348 4.99803 208.228 6.10059C207.083 7.22701 207.287 9.3549 207.287 13.3545V42.8633C207.287 46.8635 207.083 48.9918 208.228 50.1182C209.152 51.0274 210.276 51.367 211.356 51.458C211.785 51.4942 212.195 51.2923 212.469 50.959L212.52 50.8955C213.456 49.755 215.296 50.6224 215.012 52.0703C214.881 52.7365 214.296 53.2178 213.617 53.2178H195.079C194.579 53.2176 194.173 52.8118 194.173 52.3115C194.173 51.948 194.276 51.9932 194.502 51.709C194.601 51.5843 194.815 51.3467 195.233 50.9355C196.644 49.5465 198.678 47.355 198.824 43.6182C198.826 43.6529 198.825 43.6877 198.826 43.7227C198.829 43.4504 198.834 43.1695 198.834 42.8799V7.94531C198.781 8.04635 198.729 8.14872 198.68 8.25293L195.903 14.752L191.756 24.5059L186.228 37.502L195.822 14.9395L191.743 24.5059L190.89 26.3535C187.803 33.0377 178.602 33.2891 175.008 27.2295L182.491 44.5547L182.852 45.3975L182.853 45.3965L182.86 45.415L183.206 44.6055L182.86 45.416L183.57 47.0703L181.37 52.4336C181.176 52.9077 180.714 53.2178 180.201 53.2178C179.702 53.2176 179.25 52.9235 179.047 52.4678L177.969 50.0459L176.938 47.2197L174.158 40.6973L173.691 39.6328C173.728 39.707 173.765 39.7822 173.801 39.8584L160.434 8.4873L160.539 41.5732C160.541 41.5641 160.543 41.555 160.544 41.5459V42.8799C160.544 45.9984 161.098 48.0651 161.938 49.4297C162.244 49.7821 162.605 50.0884 163.01 50.334L163.294 50.5059L163.844 50.7559L164.395 51.0059C165.119 51.3352 165.906 51.5058 166.702 51.5059H167.377C167.753 51.5888 168.034 51.9233 168.034 52.3242V52.3516C168.034 52.8298 167.646 53.2178 167.168 53.2178H152.933C152.477 53.2178 152.109 52.848 152.109 52.3926V51.6504C152.109 51.6051 152.145 51.5684 152.191 51.5684C153.418 51.5683 155.031 51.6086 156.144 50.5059C157.281 49.3787 157.794 47.1881 157.794 43.1885V13.3545C157.794 9.35505 157.281 6.63305 156.144 5.50586C155.409 4.77723 154.433 4.67613 154.41 4.67383H153.884C153.634 4.67382 153.397 4.56264 153.238 4.37012C153.15 4.26271 153.095 4.14401 153.068 4.02344C153.027 4.02291 152.986 4.02246 152.946 4.02246V3.74414L153.042 3.75195C153.045 3.75103 153.049 3.7497 153.052 3.74902C153.052 3.75034 153.051 3.75161 153.051 3.75293L153.42 3.78613L153.094 3.74512C153.079 3.74332 153.065 3.74627 153.052 3.74902C153.096 3.35267 153.421 3.00002 153.884 3H162.692ZM167.186 52.4062C167.193 52.3895 167.196 52.3709 167.196 52.3516C167.196 52.3234 167.186 52.2984 167.172 52.2764L167.186 52.4062ZM183.249 44.5059L183.206 44.6055L186.228 37.502L183.249 44.5059ZM198.824 43.6182C198.823 43.5806 198.82 43.5432 198.818 43.5059H198.828C198.827 43.5435 198.826 43.5809 198.824 43.6182Z" fill="white"/>
</svg>
